<svg width="301" height="37" viewBox="0 0 301 37" fill="none" xmlns="http://www.w3.org/2000/svg">
<g clip-path="url(#clip0_1_2015)">
<path d="M296.087 6.91797H241.23C238.904 6.91797 237.019 8.71452 237.019 10.9317V32.2735C237.019 34.4907 238.904 36.2873 241.23 36.2873H296.087C298.414 36.2873 300.299 34.4907 300.299 32.2735V10.9317C300.299 8.71452 298.414 6.91797 296.087 6.91797ZM258.029 16.0243H254.831V28.6307H252.773V16.0243H249.576V14.2711H258.029V16.0243ZM266.92 15.9826H261.795V20.5117H266.241V22.2231H261.795V26.9192H266.92V28.6307H259.737V14.2711H266.92V15.9826ZM275.811 28.5054C275.504 28.5889 275.113 28.658 274.638 28.7142C274.163 28.7704 273.722 28.7976 273.312 28.7976C271.97 28.7976 270.991 28.6034 270.378 28.2132C269.765 27.8231 269.352 27.1311 269.142 26.1357C268.929 25.1403 268.825 23.5798 268.825 21.4509C268.825 19.322 268.931 17.7807 269.142 16.7853C269.354 15.7899 269.77 15.0948 270.39 14.6982C271.01 14.3016 271.985 14.1026 273.312 14.1026C273.75 14.1026 274.2 14.1298 274.66 14.186C275.12 14.2422 275.489 14.3177 275.767 14.4156V16.0019C274.994 15.8766 274.315 15.814 273.73 15.814C272.795 15.814 272.145 15.9328 271.781 16.1688C271.416 16.4048 271.178 16.8849 271.07 17.609C270.961 18.333 270.905 19.6126 270.905 21.4493C270.905 23.286 270.961 24.5656 271.07 25.2896C271.18 26.0137 271.417 26.4938 271.781 26.7298C272.147 26.9658 272.795 27.0846 273.73 27.0846C274.547 27.0846 275.241 27.022 275.811 26.8967V28.5038V28.5054ZM286.563 28.6307H284.483V22.2858H279.949V28.6307H277.891V14.2711H279.949V20.4908H284.483V14.2711H286.563V28.6307Z" fill="white"/>
<path d="M77.5562 35.7766H73.1444C72.9928 35.1601 72.8833 33.8965 72.8345 33.15C71.817 35.4763 69.6878 36.2871 67.3193 36.2871C61.917 36.2871 60.1786 32.5608 60.1786 26.6333V10.2042C60.1786 4.49029 62.5134 0.287109 68.891 0.287109C76.5994 0.287109 77.4114 5.68799 77.4114 9.44164V10.5767H71.7513V9.17673C71.7513 7.33202 71.47 5.19992 68.8843 5.19992C66.8241 5.19992 65.9431 6.55978 65.9431 9.35173V27.245C65.9431 30.0449 66.7938 31.5092 68.8388 31.5092C71.2931 31.5092 71.8911 29.5521 71.8911 25.9558V20.8503H68.6804V16.212H77.5579V35.775L77.5562 35.7766Z" fill="white"/>
<path d="M89.2014 0.797852H83.5414V35.7752H89.2014V0.797852Z" fill="white"/>
<path d="M112.17 35.7766H107.758C107.607 35.1601 107.497 33.8965 107.448 33.15C106.431 35.4763 104.302 36.2871 101.933 36.2871C96.5308 36.2871 94.7924 32.5608 94.7924 26.6333V10.2042C94.7924 4.49029 97.1254 0.287109 103.505 0.287109C111.213 0.287109 112.027 5.68799 112.027 9.44164V10.5767H106.367V9.17673C106.367 7.33202 106.085 5.19992 103.5 5.19992C101.44 5.19992 100.559 6.55978 100.559 9.35173V27.245C100.559 30.0449 101.409 31.5092 103.454 31.5092C105.909 31.5092 106.507 29.5521 106.507 25.9558V20.8503H103.296V16.212H112.173V35.775L112.17 35.7766Z" fill="white"/>
<path d="M128.567 21.459C127.728 15.5186 126.927 9.88013 126.507 5.9258H126.302C126.143 8.80766 125.04 16.2973 124.309 21.459H128.569H128.567ZM123.591 26.4199L122.306 35.7768H116.548L122.459 0.797852H130.456L136.594 35.7752H130.678L129.234 26.4183H123.589L123.591 26.4199Z" fill="white"/>
<path d="M140.681 0.797852H154.977V5.80539H146.341V15.0065H154.566V20.014H146.341V35.7768H140.681V0.797852Z" fill="white"/>
<path d="M165.351 0.797852H159.691V35.7752H165.351V0.797852Z" fill="white"/>
<path d="M177.188 31.3681H179.078C182.344 31.3681 183.161 29.9922 183.161 26.6062V24.2766C183.161 20.8649 182.253 19.4007 178.647 19.4007H177.188V31.3665V31.3681ZM178.618 15.0402C181.783 15.0402 182.73 14.109 182.73 10.6411V9.27486C182.73 6.37213 181.647 5.25149 178.94 5.25149H177.188V15.0402H178.618ZM171.722 0.797852H179.257C185.611 0.797852 188.051 3.63155 188.051 8.7611V10.0471C188.051 15.0097 186.249 16.4418 184.645 17.076C186.283 17.6989 188.732 19.0026 188.732 24.092V26.7442C188.732 32.6589 186.145 35.7752 179.757 35.7752H171.723V0.797852H171.722Z" fill="white"/>
<path d="M207.434 19.7973H199.366V30.8158H208.663L207.947 35.7768H193.706V0.797852H207.88V5.80539H199.366V14.8379H207.434V19.7973Z" fill="white"/>
<path d="M218.425 15.6808H219.722C222.717 15.6808 223.817 14.6051 223.817 10.8017V9.60238C223.817 6.89873 223.231 5.2531 220.022 5.2531H218.424V15.6824L218.425 15.6808ZM218.425 20.1344V35.7752H212.765V0.797852H220.605C226.189 0.797852 229.486 2.92995 229.486 9.2267V10.5593C229.486 15.9345 227.171 17.3007 225.75 17.8562C227.891 18.8131 229.115 20.2837 229.115 25.0296C229.115 27.9741 229.06 33.6575 229.451 35.7768H223.984C223.496 33.6639 223.6 27.9179 223.6 25.378C223.6 21.1138 223.024 20.136 219.739 20.136H218.427L218.425 20.1344Z" fill="white"/>
<path d="M52.3758 20.8505H20.176C18.8317 20.8505 17.7435 19.8118 17.7435 18.5322C17.7435 17.2526 18.8334 16.2139 20.176 16.2139H52.3758C52.4247 16.2139 52.4634 16.2524 52.4634 16.2974V20.767C52.4634 20.8136 52.423 20.8505 52.3758 20.8505Z" fill="white"/>
<path d="M52.1535 11.5659H2.71579C1.37153 11.5659 0.283325 10.5271 0.283325 9.24753C0.283325 7.96795 1.37322 6.9292 2.71579 6.9292H52.1535C52.3236 6.9292 52.4634 7.06085 52.4634 7.22461V11.2721C52.4634 11.4358 52.3253 11.5675 52.1535 11.5675" fill="white"/>
<path d="M52.6689 30.1561H37.8012C36.4553 30.1561 35.3637 29.1157 35.3637 27.8329C35.3637 26.5501 36.4553 25.5098 37.8012 25.5098H52.6689C52.7178 25.5098 52.7565 25.5467 52.7565 25.5932V30.071C52.7565 30.1175 52.7178 30.1545 52.6689 30.1545" fill="white"/>
</g>
<defs>
<clipPath id="clip0_1_2015">
<rect width="300.015" height="36" fill="white" transform="translate(0.283325 0.287109)"/>
</clipPath>
</defs>
</svg>
