<svg width="215" height="27" viewBox="0 0 215 27" fill="none" xmlns="http://www.w3.org/2000/svg">
<g clip-path="url(#clip0_76_199)">
<path d="M211.982 4.97302H172.67C171.003 4.97302 169.652 6.32043 169.652 7.98333V23.9897C169.652 25.6526 171.003 27 172.67 27H211.982C213.649 27 215 25.6526 215 23.9897V7.98333C215 6.32043 213.649 4.97302 211.982 4.97302ZM184.708 11.8028H182.417V21.2576H180.942V11.8028H178.65V10.4879H184.708V11.8028ZM191.08 11.7715H187.407V15.1683H190.593V16.4519H187.407V19.974H191.08V21.2576H185.932V10.4879H191.08V11.7715ZM197.451 21.1636C197.231 21.2262 196.951 21.278 196.611 21.3202C196.271 21.3623 195.954 21.3828 195.661 21.3828C194.699 21.3828 193.997 21.2371 193.558 20.9445C193.119 20.6519 192.823 20.1329 192.672 19.3863C192.52 18.6398 192.445 17.4694 192.445 15.8727C192.445 14.2761 192.521 13.1201 192.672 12.3735C192.824 11.627 193.122 11.1056 193.566 10.8082C194.011 10.5108 194.71 10.3615 195.661 10.3615C195.975 10.3615 196.297 10.3819 196.627 10.4241C196.956 10.4662 197.221 10.5228 197.42 10.5963V11.7859C196.866 11.692 196.379 11.6451 195.96 11.6451C195.29 11.6451 194.824 11.7342 194.564 11.9112C194.302 12.0882 194.131 12.4482 194.054 12.9913C193.976 13.5343 193.936 14.494 193.936 15.8715C193.936 17.249 193.976 18.2087 194.054 18.7518C194.133 19.2948 194.303 19.6549 194.564 19.8319C194.826 20.0089 195.29 20.098 195.96 20.098C196.546 20.098 197.043 20.051 197.451 19.9571V21.1624V21.1636ZM205.157 21.2576H203.666V16.4989H200.417V21.2576H198.942V10.4879H200.417V15.1527H203.666V10.4879H205.157V21.2576Z" fill="white"/>
<path d="M55.3761 26.6171H52.2144C52.1058 26.1547 52.0273 25.2071 51.9923 24.6472C51.2632 26.3919 49.7373 27 48.04 27C44.1685 27 42.9227 24.2052 42.9227 19.7596V7.43785C42.9227 3.15239 44.5959 0 49.1663 0C54.6904 0 55.2723 4.05066 55.2723 6.8659V7.71721H51.2161V6.66722C51.2161 5.28368 51.0145 3.68461 49.1615 3.68461C47.6851 3.68461 47.0537 4.7045 47.0537 6.79847V20.2184C47.0537 22.3184 47.6634 23.4165 49.1289 23.4165C50.8877 23.4165 51.3163 21.9487 51.3163 19.2515V15.4224H49.0154V11.9437H55.3773V26.6159L55.3761 26.6171Z" fill="white"/>
<path d="M63.7214 0.382935H59.6652V26.6159H63.7214V0.382935Z" fill="white"/>
<path d="M80.1814 26.6171H77.0197C76.9111 26.1547 76.8326 25.2071 76.7976 24.6472C76.0685 26.3919 74.5426 27 72.8453 27C68.9738 27 67.728 24.2052 67.728 19.7596V7.43785C67.728 3.15239 69.4 0 73.9716 0C79.4957 0 80.0788 4.05066 80.0788 6.8659V7.71721H76.0226V6.66722C76.0226 5.28368 75.821 3.68461 73.968 3.68461C72.4916 3.68461 71.8602 4.7045 71.8602 6.79847V20.2184C71.8602 22.3184 72.4699 23.4165 73.9354 23.4165C75.6943 23.4165 76.1228 21.9487 76.1228 19.2515V15.4224H73.8219V11.9437H80.1838V26.6159L80.1814 26.6171Z" fill="white"/>
<path d="M91.9321 15.8788C91.3309 11.4235 90.7563 7.19465 90.4557 4.2289H90.3085C90.195 6.39029 89.4043 12.0075 88.8804 15.8788H91.9333H91.9321ZM88.3661 19.5995L87.445 26.6171H83.3188L87.5549 0.382935H93.2854L97.6844 26.6159H93.4447L92.4102 19.5983H88.3649L88.3661 19.5995Z" fill="white"/>
<path d="M100.613 0.382935H110.858V4.13859H104.669V11.0394H110.564V14.7951H104.669V26.6171H100.613V0.382935Z" fill="white"/>
<path d="M118.292 0.382935H114.236V26.6159H118.292V0.382935Z" fill="white"/>
<path d="M126.775 23.3106H128.13C130.47 23.3106 131.056 22.2787 131.056 19.7392V17.992C131.056 15.4332 130.405 14.3351 127.821 14.3351H126.775V23.3094V23.3106ZM127.8 11.0647C130.068 11.0647 130.747 10.3663 130.747 7.7654V6.74069C130.747 4.56364 129.971 3.72317 128.031 3.72317H126.775V11.0647H127.8ZM122.858 0.382935H128.258C132.811 0.382935 134.56 2.50821 134.56 6.35537V7.31987C134.56 11.0418 133.269 12.1159 132.119 12.5915C133.293 13.0587 135.048 14.0365 135.048 17.8535V19.8427C135.048 24.2787 133.194 26.6159 128.616 26.6159H122.859V0.382935H122.858Z" fill="white"/>
<path d="M148.45 14.6325H142.669V22.8964H149.331L148.818 26.6171H138.613V0.382935H148.77V4.13859H142.669V10.913H148.45V14.6325Z" fill="white"/>
<path d="M156.327 11.5451H157.257C159.403 11.5451 160.191 10.7384 160.191 7.88581V6.98633C160.191 4.95859 159.771 3.72437 157.471 3.72437H156.326V11.5463L156.327 11.5451ZM156.327 14.8854V26.6159H152.271V0.382935H157.889C161.891 0.382935 164.253 1.98201 164.253 6.70457V7.70399C164.253 11.7354 162.595 12.7601 161.576 13.1767C163.11 13.8944 163.988 14.9973 163.988 18.5567C163.988 20.7651 163.948 25.0277 164.228 26.6171H160.311C159.961 25.0325 160.036 20.7229 160.036 18.818C160.036 15.6199 159.623 14.8866 157.269 14.8866H156.328L156.327 14.8854Z" fill="white"/>
<path d="M37.3311 15.4224H14.2557C13.2924 15.4224 12.5125 14.6433 12.5125 13.6836C12.5125 12.724 13.2936 11.9449 14.2557 11.9449H37.3311C37.3661 11.9449 37.3938 11.9738 37.3938 12.0075V15.3598C37.3938 15.3947 37.3649 15.4224 37.3311 15.4224Z" fill="white"/>
<path d="M37.1717 8.45895H1.74318C0.779843 8.45895 0 7.67988 0 6.7202C0 5.76051 0.78105 4.98145 1.74318 4.98145H37.1717C37.2936 4.98145 37.3938 5.08018 37.3938 5.203V8.23859C37.3938 8.36141 37.2948 8.46015 37.1717 8.46015" fill="white"/>
<path d="M37.5411 22.4015H26.8864C25.9219 22.4015 25.1396 21.6212 25.1396 20.6591C25.1396 19.697 25.9219 18.9167 26.8864 18.9167H37.5411C37.5761 18.9167 37.6039 18.9444 37.6039 18.9794V22.3377C37.6039 22.3726 37.5761 22.4003 37.5411 22.4003" fill="white"/>
</g>
<defs>
<clipPath id="clip0_76_199">
<rect width="215" height="27" fill="black"/>
</clipPath>
</defs>
</svg>
