<svg width="31" height="28" viewBox="0 0 31 28" fill="none" xmlns="http://www.w3.org/2000/svg">
<g clip-path="url(#clip0_1_1822)">
<path d="M17.9572 14.023C17.9572 17.984 17.9603 21.944 17.9551 25.9051C17.9531 27.1959 17.0054 28.0919 15.765 27.9927C15.2193 27.9488 14.7934 27.671 14.4143 27.2899C12.1023 24.9652 9.7831 22.649 7.47531 20.3202C7.25765 20.1008 7.04728 20.0006 6.73277 20.0037C5.21334 20.0204 3.69286 20.0142 2.17239 20.011C0.826873 20.0079 0.00623231 19.1944 0.00414947 17.8493C-0.00105764 15.2824 -0.00105764 12.7165 0.00414947 10.1496C0.00727374 8.80769 0.829997 7.99731 2.17968 7.99418C3.71265 7.99104 5.24562 7.98687 6.7786 7.9994C7.04624 8.00149 7.23474 7.9263 7.42428 7.73414C9.76019 5.37923 12.1034 3.02953 14.4497 0.684016C15.4255 -0.291368 16.8544 -0.209912 17.5938 0.851105C17.8718 1.25108 17.9603 1.69908 17.9603 2.18155C17.9562 6.12904 17.9583 10.0765 17.9572 14.024V14.023Z" fill="white"/>
</g>
<defs>
<clipPath id="clip0_1_1822">
<rect width="31" height="28" fill="white"/>
</clipPath>
</defs>
</svg>
