<svg width="31" height="28" viewBox="0 0 31 28" fill="none" xmlns="http://www.w3.org/2000/svg">
<g clip-path="url(#clip0_1_1822)">
<path d="M17.9572 14.023C17.9572 17.984 17.9603 21.944 17.9551 25.9051C17.9531 27.1959 17.0054 28.0919 15.765 27.9927C15.2193 27.9488 14.7934 27.671 14.4143 27.2899C12.1023 24.9652 9.7831 22.649 7.47531 20.3202C7.25765 20.1008 7.04728 20.0006 6.73277 20.0037C5.21334 20.0204 3.69286 20.0142 2.17239 20.011C0.826873 20.0079 0.00623231 19.1944 0.00414947 17.8493C-0.00105764 15.2824 -0.00105764 12.7165 0.00414947 10.1496C0.00727374 8.80769 0.829997 7.99731 2.17968 7.99418C3.71265 7.99104 5.24562 7.98687 6.7786 7.9994C7.04624 8.00149 7.23474 7.9263 7.42428 7.73414C9.76019 5.37923 12.1034 3.02953 14.4497 0.684016C15.4255 -0.291368 16.8544 -0.209912 17.5938 0.851105C17.8718 1.25108 17.9603 1.69908 17.9603 2.18155C17.9562 6.12904 17.9583 10.0765 17.9572 14.024V14.023Z" fill="white"/>
<path d="M26.0064 11.69C26.7281 10.96 27.3998 10.2718 28.0809 9.59197C28.8463 8.82753 29.7857 8.79203 30.497 9.49067C31.1885 10.1695 31.1604 11.2054 30.421 11.9584C29.7472 12.6434 29.064 13.3191 28.3704 14.0136C29.0786 14.7258 29.7628 15.4182 30.4512 16.1064C30.9333 16.5888 31.1156 17.1611 30.9271 17.819C30.5813 19.0294 29.1088 19.4126 28.1746 18.5386C27.8049 18.1929 27.454 17.8253 27.0978 17.464C26.751 17.112 26.4094 16.7559 26.0397 16.3758C25.9251 16.4802 25.8304 16.5606 25.7429 16.6473C25.1264 17.2635 24.5182 17.8869 23.8954 18.4947C23.1956 19.1766 22.1739 19.1871 21.5199 18.5354C20.8461 17.8639 20.8586 16.8426 21.5616 16.1272C22.2448 15.4317 22.9383 14.7467 23.684 14.0021C23.4518 13.7838 23.2247 13.5802 23.0081 13.3651C22.5009 12.8617 21.9865 12.3636 21.496 11.8435C20.8451 11.1511 20.8711 10.1475 21.5335 9.49171C22.2073 8.8244 23.1268 8.8056 23.8298 9.48545C24.5578 10.1893 25.2545 10.9266 26.0064 11.691V11.69Z" fill="white"/>
</g>
<defs>
<clipPath id="clip0_1_1822">
<rect width="31" height="28" fill="white"/>
</clipPath>
</defs>
</svg>
