<svg width="32" height="28" viewBox="0 0 32 28" fill="none" xmlns="http://www.w3.org/2000/svg">
<g id="Sound on off" clip-path="url(#clip0_76_223)">
<path id="Vector" d="M18.4572 14.023C18.4572 17.9841 18.4604 21.9441 18.4552 25.9051C18.4531 27.1959 17.5054 28.0919 16.2651 27.9927C15.7193 27.9489 15.2934 27.6711 14.9143 27.2899C12.6024 24.9653 10.2831 22.649 7.97534 20.3202C7.75768 20.1009 7.54731 20.0006 7.2328 20.0038C5.71337 20.0205 4.1929 20.0142 2.67242 20.0111C1.3269 20.0079 0.506263 19.1944 0.50418 17.8493C0.498973 15.2824 0.498973 12.7166 0.50418 10.1497C0.507304 8.80772 1.33003 7.99734 2.67971 7.99421C4.21268 7.99107 5.74565 7.9869 7.27863 7.99943C7.54627 8.00152 7.73477 7.92633 7.92431 7.73417C10.2602 5.37926 12.6034 3.02956 14.9497 0.684046C15.9256 -0.291338 17.3544 -0.209882 18.0938 0.851136C18.3719 1.25111 18.4604 1.69911 18.4604 2.18158C18.4562 6.12907 18.4583 10.0766 18.4572 14.024V14.023Z" fill="white"/>
<path id="Vector_2" d="M26.5064 11.69C27.2281 10.96 27.8998 10.2718 28.5809 9.59195C29.3463 8.82752 30.2857 8.79201 30.997 9.49065C31.6885 10.1695 31.6604 11.2054 30.921 11.9584C30.2472 12.6434 29.564 13.3191 28.8704 14.0136C29.5786 14.7258 30.2628 15.4181 30.9512 16.1063C31.4333 16.5888 31.6156 17.1611 31.4271 17.819C31.0813 19.0294 29.6088 19.4126 28.6746 18.5385C28.3049 18.1929 27.954 17.8253 27.5978 17.4639C27.251 17.112 26.9094 16.7559 26.5397 16.3758C26.4251 16.4802 26.3304 16.5606 26.2429 16.6473C25.6264 17.2634 25.0182 17.8869 24.3954 18.4947C23.6956 19.1766 22.6739 19.1871 22.0199 18.5354C21.3461 17.8639 21.3586 16.8426 22.0616 16.1272C22.7448 15.4317 23.4383 14.7467 24.184 14.0021C23.9518 13.7838 23.7247 13.5802 23.5081 13.365C23.0009 12.8617 22.4865 12.3635 21.996 11.8435C21.3451 11.1511 21.3711 10.1475 22.0335 9.4917C22.7073 8.82439 23.6268 8.80559 24.3298 9.48543C25.0578 10.1893 25.7545 10.9266 26.5064 11.691V11.69Z" fill="white"/>
</g>
<defs>
<clipPath id="clip0_76_223">
<rect width="31" height="28" fill="white" transform="translate(0.5)"/>
</clipPath>
</defs>
</svg>
