<svg width="32" height="28" viewBox="0 0 32 28" fill="none" xmlns="http://www.w3.org/2000/svg">
<g clip-path="url(#clip0_1_1822)">
<path d="M18.4572 14.023C18.4572 17.984 18.4603 21.944 18.4551 25.9051C18.4531 27.1959 17.5054 28.0919 16.265 27.9927C15.7193 27.9488 15.2934 27.671 14.9143 27.2899C12.6023 24.9652 10.2831 22.649 7.97531 20.3202C7.75765 20.1008 7.54728 20.0006 7.23277 20.0037C5.71334 20.0204 4.19286 20.0142 2.67239 20.011C1.32687 20.0079 0.506232 19.1944 0.504149 17.8493C0.498942 15.2824 0.498942 12.7165 0.504149 10.1496C0.507274 8.80769 1.33 7.99731 2.67968 7.99418C4.21265 7.99104 5.74562 7.98687 7.2786 7.9994C7.54624 8.00149 7.73474 7.9263 7.92428 7.73414C10.2602 5.37923 12.6034 3.02953 14.9497 0.684016C15.9255 -0.291368 17.3544 -0.209912 18.0938 0.851105C18.3718 1.25108 18.4603 1.69908 18.4603 2.18155C18.4562 6.12904 18.4583 10.0765 18.4572 14.024V14.023Z" fill="white"/>
<path d="M26.5064 11.69C27.2281 10.96 27.8998 10.2718 28.5809 9.59197C29.3463 8.82753 30.2857 8.79203 30.997 9.49067C31.6885 10.1695 31.6604 11.2054 30.921 11.9584C30.2472 12.6434 29.564 13.3191 28.8704 14.0136C29.5786 14.7258 30.2628 15.4182 30.9512 16.1064C31.4333 16.5888 31.6156 17.1611 31.4271 17.819C31.0813 19.0294 29.6088 19.4126 28.6746 18.5386C28.3049 18.1929 27.954 17.8253 27.5978 17.464C27.251 17.112 26.9094 16.7559 26.5397 16.3758C26.4251 16.4802 26.3304 16.5606 26.2429 16.6473C25.6264 17.2635 25.0182 17.8869 24.3954 18.4947C23.6956 19.1766 22.6739 19.1871 22.0199 18.5354C21.3461 17.8639 21.3586 16.8426 22.0616 16.1272C22.7448 15.4317 23.4383 14.7467 24.184 14.0021C23.9518 13.7838 23.7247 13.5802 23.5081 13.3651C23.0009 12.8617 22.4865 12.3636 21.996 11.8435C21.3451 11.1511 21.3711 10.1475 22.0335 9.49171C22.7073 8.8244 23.6268 8.8056 24.3298 9.48545C25.0578 10.1893 25.7545 10.9266 26.5064 11.691V11.69Z" fill="white"/>
</g>
<defs>
<clipPath id="clip0_1_1822">
<rect width="31" height="28" fill="white" transform="translate(0.5)"/>
</clipPath>
</defs>
</svg>
